<?xml version="1.0" encoding="UTF-8"?><svg version="1.1" viewBox="0 0 24 24" xmlns="http://www.w3.org/2000/svg" xmlns:xlink="http://www.w3.org/1999/xlink"><!--Generated by IJSVG (https://github.com/iconjar/IJSVG)--><path d="M7.496,3h9.009c2.482,0 4.495,2.012 4.495,4.496v9.009c0,2.482 -2.012,4.495 -4.496,4.495h-9.008c-2.483,0 -4.496,-2.012 -4.496,-4.496v-9.008c0,-2.483 2.012,-4.496 4.496,-4.496Z" stroke-linecap="round" stroke-width="1.5" fill-rule="evenodd" stroke="#ffffff" fill="none" stroke-linejoin="round"></path><path fill="none" stroke="#ffffff" stroke-linecap="round" stroke-linejoin="round" stroke-width="1.5" d="M16.949,6.713c-0.186,0.001 -0.337,0.152 -0.337,0.338c0,0.186 0.152,0.337 0.338,0.337c0.186,0 0.337,-0.151 0.337,-0.337c0.001,-0.187 -0.151,-0.338 -0.338,-0.338"></path><path d="M14.5456,9.45442c1.40589,1.40589 1.40589,3.68528 0,5.09117c-1.40589,1.40589 -3.68528,1.40589 -5.09117,1.77636e-15c-1.40589,-1.40589 -1.40589,-3.68528 -1.77636e-15,-5.09117c1.40589,-1.40589 3.68528,-1.40589 5.09117,-1.77636e-15" stroke-linecap="round" stroke-width="1.5" fill-rule="evenodd" stroke="#ffffff" fill="none" stroke-linejoin="round"></path><path fill="none" d="M0,0h24v24h-24Z" transform="matrix(6.12323e-17,-1,1,6.12323e-17,0,24)"></path></svg>