<?xml version="1.0" encoding="UTF-8" standalone="no"?>
<!DOCTYPE svg PUBLIC "-//W3C//DTD SVG 1.1//EN" "http://www.w3.org/Graphics/SVG/1.1/DTD/svg11.dtd">
<svg width="100%" height="100%" viewBox="0 0 1726 345" version="1.1" xmlns="http://www.w3.org/2000/svg" xmlns:xlink="http://www.w3.org/1999/xlink" xml:space="preserve" xmlns:serif="http://www.serif.com/" style="fill-rule:evenodd;clip-rule:evenodd;stroke-linejoin:round;stroke-miterlimit:2;">
    <g transform="matrix(1,0,0,1,-1163,-2781)">
        <g id="text-transparent" serif:id="text transparent" transform="matrix(1.68555,0,0,0.449219,1163,2781)">
            <rect x="0" y="0" width="1024" height="768" style="fill:none;"/>
            <clipPath id="_clip1">
                <rect x="0" y="0" width="1024" height="768"/>
            </clipPath>
            <g clip-path="url(#_clip1)">
                <g transform="matrix(1.24788,0,0,4.68227,-2735.07,-5416.08)">
                    <path d="M2345.84,1238.64C2345.84,1284.89 2378.82,1320.74 2425.65,1320.74C2471.13,1320.74 2505.26,1284.89 2505.26,1238.64C2505.26,1192.38 2469.6,1156.72 2425.65,1156.72C2382.08,1156.72 2345.84,1192.38 2345.84,1238.64ZM2705.16,1317.87L2622.69,1317.87L2585.28,1263.96L2547.87,1317.87L2503.18,1317.87L2563.03,1232.69L2513.15,1159.6L2556.12,1159.6L2585.28,1202.76L2614.44,1159.6L2659.33,1159.6L2607.54,1232.69L2667.47,1315.34L2771.37,1159.6L2806.96,1159.6L2807.41,1317.87L2774.54,1317.87L2774.54,1210.87L2705.16,1317.87ZM2258.15,1317.87L2286.54,1317.87L2352.92,1159.6L2312.25,1159.6L2272.35,1263.58L2232.44,1159.6L2191.77,1159.6L2258.15,1317.87ZM2860.79,1159.6L2824.74,1159.6L2824.74,1317.87L2860.79,1317.87L2860.79,1159.6ZM2912.84,1219.64L2913.22,1219.64L2976.18,1317.87L3012.23,1317.87L3012.23,1159.6L2976.18,1159.6L2976.18,1257.82L2975.8,1257.82L2912.84,1159.6L2876.79,1159.6L2876.79,1317.87L2912.84,1317.87L2912.84,1219.64ZM2384.77,1238.64C2384.77,1215.03 2397.82,1191.42 2425.65,1191.42C2453.67,1191.42 2466.34,1215.03 2466.34,1238.64C2466.34,1262.24 2454.44,1285.85 2425.65,1285.85C2396.09,1285.85 2384.77,1262.24 2384.77,1238.64Z" style="fill:white;fill-rule:nonzero;"/>
                </g>
            </g>
        </g>
    </g>
</svg>
