<?xml version="1.0" encoding="UTF-8"?><svg version="1.1" viewBox="0 0 24 24" xmlns="http://www.w3.org/2000/svg" xmlns:xlink="http://www.w3.org/1999/xlink"><!--Generated by IJSVG (https://github.com/iconjar/IJSVG)--><g stroke-linecap="round" stroke-width="1.5" stroke="#ffffff" fill="none" stroke-linejoin="round"><path d="M21.583,6.373c-0.229,-1.004 -0.907,-1.796 -1.769,-2.068c-1.559,-0.487 -7.814,-0.487 -7.814,-0.487c0,0 -6.252,0 -7.814,0.487c-0.859,0.268 -1.537,1.06 -1.769,2.068c-0.417,1.822 -0.417,5.627 -0.417,5.627c0,0 0,3.805 0.417,5.627c0.229,1.004 0.907,1.796 1.769,2.068c1.562,0.487 7.814,0.487 7.814,0.487c0,0 6.255,0 7.814,-0.487c0.859,-0.268 1.537,-1.06 1.769,-2.068c0.417,-1.822 0.417,-5.627 0.417,-5.627c0,0 0,-3.805 -0.417,-5.627Z"></path><path d="M10.002,15l5.196,-3l-5.196,-3Z"></path></g><path fill="none" d="M0,0h24v24h-24Z" transform="matrix(6.12323e-17,-1,1,6.12323e-17,0,24)"></path></svg>